<?xml version="1.0" encoding="utf-8"?>
<!-- Generator: Adobe Illustrator 19.0.0, SVG Export Plug-In . SVG Version: 6.00 Build 0)  -->
<svg version="1.1" id="Filled" xmlns="http://www.w3.org/2000/svg" xmlns:xlink="http://www.w3.org/1999/xlink" x="0px" y="0px"
	 viewBox="156 -156 512 512" style="enable-background:new 156 -156 512 512;" xml:space="preserve">
<style type="text/css">
	.st0{fill:#C3C6C7;}
	.st1{fill:#E9EEF2;}
	.st2{fill:#4159E5;}
	.st3{fill:#90CAF9;}
	.st4{fill:#42A5F5;}
</style>
<path class="st0" d="M196-84h448v416H196V-84z"/>
<path class="st1" d="M180-100h432v400H180V-100z"/>
<path class="st2" d="M180-100h432v96H180V-100z"/>
<path d="M644-92h-24v-8c0-4.4-3.6-8-8-8h-56v-8c0-13.3-10.7-24-24-24s-24,10.7-24,24v8h-16v-8c0-13.3-10.7-24-24-24s-24,10.7-24,24
	v8h-96v-8c0-13.3-10.7-24-24-24s-24,10.7-24,24v8h-16v-8c0-13.3-10.7-24-24-24c-13.3,0-24,10.7-24,24v8h-56c-4.4,0-8,3.6-8,8v400
	c0,4.4,3.6,8,8,8h8v24c0,4.4,3.6,8,8,8h448c4.4,0,8-3.6,8-8V-84C652-88.4,648.4-92,644-92z M188,292V4h416v288H188z M524-116
	c0-4.4,3.6-8,8-8s8,3.6,8,8v8h-16V-116z M460-116c0-4.4,3.6-8,8-8s8,3.6,8,8v8h-16V-116z M316-116c0-4.4,3.6-8,8-8s8,3.6,8,8v8h-16
	V-116z M252-116c0-4.4,3.6-8,8-8s8,3.6,8,8v8h-16V-116z M236-92v8c0,13.2,10.8,24,24,24c4.4,0,8-3.6,8-8s-3.6-8-8-8
	c-4.4,0-8-3.6-8-8v-8h48v8c0,13.2,10.8,24,24,24c4.4,0,8-3.6,8-8s-3.6-8-8-8c-4.4,0-8-3.6-8-8v-8h128v8c0,13.2,10.8,24,24,24
	c4.4,0,8-3.6,8-8s-3.6-8-8-8c-4.4,0-8-3.6-8-8v-8h48v8c0,13.2,10.8,24,24,24c4.4,0,8-3.6,8-8s-3.6-8-8-8c-4.4,0-8-3.6-8-8v-8h80v80
	H188v-80H236z M636,324H204v-16h408c4.4,0,8-3.6,8-8V-76h16V324z"/>
<g>
	<polygon class="st3" points="447.2,260.2 409,271.8 383,271.8 344.7,260.2 273.1,79.9 396,15.7 518.8,79.9 	"/>
	<path class="st4" d="M396,15.7l-9.2,4.8l57.8,30.2c21.2,11.1,30.4,27.7,24,43.6l-61.4,154.6L369,260.5h-23.1l37.1,11.3h26
		l38.2-11.6l71.6-180.3L396,15.7z"/>
	<polygon class="st4" points="409,271.8 383,271.8 341.9,115.8 396,15.7 450.1,115.8 	"/>
	<path d="M526.2,80.9L526.2,80.9c0.6-1.5-0.3-3.1-2.2-4.1L401.1,12.6c-2.8-1.5-7.3-1.5-10.2,0c-28.6,14.9-122.4,64-123,64.3
		c-1.9,1-2.7,2.5-2.1,4l71.6,180.2c0.5,1.2,1.8,2.2,3.8,2.8c40.8,12.4,39.2,12.1,41.8,12.1h26c3,0,3.6-0.6,41.8-12.1
		c1.9-0.6,3.3-1.6,3.8-2.8L526.2,80.9C526.1,80.9,526.2,80.9,526.2,80.9z M453.8,108.1l-42.5-78.7l96.5,50.5L453.8,108.1z
		 M338.2,108.1l-54-28.2l96.5-50.5L338.2,108.1z M285.7,92.3l49.1,25.7l38.5,146.2l-22-6.7L285.7,92.3z M389.5,267.6l-38.9-147.5
		h12.7c4.1,0,7.5-1.9,7.5-4.2s-3.4-4.2-7.5-4.2H352l44-81.4l44,81.4h-41.7c-4.1,0-7.5,1.9-7.5,4.2s3.4,4.2,7.5,4.2h43.1l-38.9,147.5
		H389.5z M440.7,257.4l-22,6.7l38.5-146.2l49.1-25.7L440.7,257.4z"/>
</g>
</svg>
